<svg width="25" height="25" viewBox="0 0 25 25" fill="none" xmlns="http://www.w3.org/2000/svg">
<path fill-rule="evenodd" clip-rule="evenodd" d="M18.6662 3.56231C19.0171 3.56209 19.3537 3.7014 19.6019 3.94955L21.0502 5.39788C21.2983 5.64602 21.4376 5.98264 21.4374 6.33357C21.4372 6.6845 21.2975 7.02095 21.049 7.26879L4.65489 23.6229C4.53205 23.7454 4.38629 23.8426 4.22593 23.9088L1.82691 24.8998C1.3331 25.1038 0.765064 24.9905 0.387275 24.6127C0.00948536 24.2349 -0.103791 23.6669 0.100187 23.1731L1.09117 20.774C1.15741 20.6136 1.25457 20.4679 1.37711 20.345L17.731 3.9507C17.9788 3.70225 18.3153 3.56252 18.6662 3.56231Z" fill="white"/>
<path fill-rule="evenodd" clip-rule="evenodd" d="M21.7552 0.176193C22.036 0.0598716 22.3369 0 22.6409 0C22.9448 0 23.2458 0.0598716 23.5266 0.176193C23.8073 0.292503 24.0625 0.462977 24.2773 0.677889L24.2774 0.677942L24.3228 0.723308C24.7564 1.15728 25 1.74568 25 2.35917C25 2.97267 24.7564 3.56107 24.3228 3.99504L23.6139 4.70392C23.0976 5.22024 22.2605 5.22024 21.7442 4.70392L20.2958 3.25559C20.0478 3.00758 19.9085 2.67118 19.9086 2.32043C19.9087 1.96968 20.0481 1.63334 20.2962 1.38543L21.0043 0.677942C21.0044 0.677847 21.0045 0.677752 21.0046 0.677658L21.0048 0.677492C21.2196 0.462773 21.4746 0.292434 21.7552 0.176193ZM23.3876 3.0605L23.6139 2.83415L22.9126 2.13283L23.3876 1.65784L22.9124 2.13265L22.1656 1.38583" fill="white"/>
</svg>
